 <svg  version="1.0" xmlns="http://www.w3.org/2000/svg"  width="1536.000000pt" height="1536.000000pt" viewBox="0 0 1536.000000 1536.000000"  preserveAspectRatio="xMidYMid meet">  <g transform="translate(0.000000,1536.000000) scale(0.100000,-0.100000)" fill="#99e5fc" stroke="none"> <path d="M7050 15345 c0 -8 -15 -17 -37 -21 -80 -15 -149 -53 -453 -249 -36 -23 -93 -59 -128 -81 -290 -182 -331 -212 -357 -263 -29 -59 -31 -94 -8 -153 33 -87 93 -129 183 -129 67 -1 96 13 282 133 53 35 157 101 230 147 73 47 170 108 215 137 182 118 226 115 445 -28 46 -30 110 -71 143 -92 33 -20 105 -65 160 -101 111 -70 223 -142 261 -165 25 -16 153 -98 289 -185 121 -78 341 -218 370 -235 33 -20 163 -104 350 -225 84 -55 161 -104 170 -110 25 -15 10 -36 -53 -76 -31 -20 -102 -66 -157 -101 -55 -36 -145 -94 -200 -130 -55 -35 -127 -80 -160 -100 -33 -20 -103 -65 -157 -100 -53 -35 -122 -79 -155 -99 -32 -20 -123 -78 -203 -129 -151 -96 -439 -280 -607 -387 -162 -103 -196 -123 -238 -134 -64 -18 -131 -3 -210 45 -77 48 -266 167 -360 227 -80 51 -161 103 -625 399 -85 54 -182 116 -215 136 -76 48 -186 117 -250 159 -27 18 -102 65 -165 105 -210 132 -229 145 -235 160 -4 9 1 19 10 25 9 6 60 38 113 73 53 34 128 81 165 105 115 70 145 95 174 138 23 35 27 51 27 109 -1 75 -21 111 -86 160 -28 21 -44 25 -108 25 -71 0 -78 -2 -140 -42 -36 -23 -117 -74 -180 -114 -311 -196 -372 -241 -441 -328 -43 -54 -68 -103 -100 -191 -24 -65 -24 -67 -29 -645 -5 -523 -7 -580 -21 -579 -9 1 -56 27 -105 59 -49 32 -111 73 -139 90 -180 117 -339 160 -497 136 -114 -17 -210 -57 -336 -140 -32 -21 -91 -59 -132 -85 -87 -55 -233 -148 -337 -215 -40 -25 -122 -77 -183 -116 -61 -38 -121 -77 -134 -85 -13 -8 -54 -34 -92 -58 -38 -24 -103 -65 -144 -92 -41 -26 -113 -72 -160 -101 -47 -29 -125 -79 -173 -111 -49 -32 -90 -58 -91 -58 -2 0 -46 -28 -99 -62 -53 -35 -131 -85 -174 -112 -299 -189 -355 -247 -431 -445 l-26 -66 -3 -867 -4 -868 -22 -5 c-12 -2 -107 -6 -212 -8 -215 -5 -283 -18 -436 -86 -126 -55 -221 -122 -324 -225 -95 -95 -145 -164 -196 -267 -84 -170 -109 -279 -109 -484 0 -166 13 -248 60 -376 104 -287 360 -538 645 -635 146 -49 188 -54 510 -60 171 -3 329 -10 352 -16 52 -13 117 -67 143 -119 27 -52 27 -156 1 -207 -24 -47 -65 -89 -111 -112 -31 -15 -74 -18 -340 -23 -215 -3 -329 -10 -385 -20 -228 -44 -403 -136 -564 -296 -136 -135 -210 -254 -264 -426 -42 -134 -47 -169 -47 -328 0 -262 57 -444 198 -633 81 -108 256 -274 290 -274 5 0 15 -6 21 -14 14 -17 187 -93 254 -112 116 -32 260 -44 533 -44 301 0 338 6 393 62 28 28 71 134 71 172 0 24 -48 109 -73 129 -61 49 -72 50 -427 54 -349 3 -351 4 -460 51 -65 28 -168 102 -222 160 -49 54 -128 172 -128 192 0 5 -6 24 -14 42 -28 66 -40 199 -27 300 17 125 44 189 128 304 73 102 151 159 328 239 35 16 82 20 370 26 334 7 414 15 495 44 138 50 284 184 351 320 39 81 68 205 69 290 0 79 -29 201 -68 285 -45 97 -168 225 -273 283 -123 69 -174 77 -514 77 -332 0 -387 7 -500 63 -135 66 -252 171 -303 268 -13 24 -27 51 -31 59 -47 82 -69 234 -52 362 7 51 20 109 28 128 77 184 178 296 337 374 109 54 177 68 352 73 l152 4 6 -173 c7 -241 23 -328 76 -423 56 -102 155 -202 258 -263 40 -24 108 -67 150 -96 42 -29 106 -70 142 -91 64 -38 298 -189 352 -226 15 -10 30 -19 33 -19 3 0 24 -12 48 -27 23 -15 49 -32 58 -38 10 -5 51 -32 93 -60 41 -27 103 -68 138 -89 95 -59 259 -165 290 -187 15 -10 30 -19 33 -19 3 0 24 -12 48 -27 23 -15 50 -32 59 -38 9 -5 47 -31 85 -56 122 -82 213 -140 230 -146 10 -4 47 -27 83 -52 132 -90 166 -106 295 -142 92 -25 197 -24 298 2 104 26 155 51 295 141 62 40 162 105 223 143 60 39 142 91 182 118 40 26 79 50 87 54 8 4 65 39 125 78 61 40 160 102 220 140 61 38 156 99 211 137 56 37 105 68 108 68 4 0 19 8 34 19 32 22 230 151 254 166 108 64 179 109 264 167 56 37 105 68 108 68 3 0 30 16 59 36 79 54 180 167 220 248 69 137 67 118 67 742 0 351 4 564 10 564 9 0 210 -118 220 -129 29 -34 169 -108 240 -129 115 -34 198 -38 317 -17 99 17 184 55 301 132 108 72 225 143 235 143 4 0 7 -399 7 -887 1 -747 3 -894 15 -928 8 -22 15 -47 15 -55 0 -8 17 -48 37 -88 44 -89 170 -223 253 -270 30 -17 51 -32 45 -32 -5 0 -253 -1 -550 -3 l-540 -2 -43 -23 c-26 -14 -54 -41 -73 -70 -28 -44 -29 -53 -27 -129 3 -74 6 -85 34 -120 17 -21 50 -48 73 -60 l42 -23 892 -2 892 -3 65 -46 c66 -46 259 -169 266 -169 2 0 45 -28 96 -63 92 -62 144 -95 203 -128 17 -9 59 -37 95 -61 81 -55 259 -168 266 -168 3 0 51 -31 108 -70 117 -79 219 -130 286 -142 149 -28 162 -29 223 -19 172 29 238 56 368 147 l84 59 735 3 c716 2 847 -2 920 -29 190 -70 351 -224 418 -399 28 -73 42 -219 31 -315 -11 -87 -16 -102 -56 -190 -78 -169 -234 -301 -423 -359 -51 -15 -203 -17 -1900 -19 -1697 -3 -1850 -4 -1913 -20 -135 -34 -214 -81 -332 -202 -101 -103 -142 -189 -165 -346 -21 -143 13 -311 86 -424 66 -104 195 -216 294 -256 140 -57 163 -59 724 -59 498 0 519 -1 579 -21 165 -56 269 -126 357 -244 45 -61 100 -161 100 -184 0 -9 7 -29 15 -45 22 -42 21 -270 -2 -340 -85 -264 -291 -441 -554 -475 -122 -16 -5311 -16 -5424 0 -99 14 -173 43 -265 104 -106 70 -235 238 -260 340 -6 22 -15 48 -20 57 -17 30 -12 262 6 321 60 192 191 344 365 426 125 58 86 55 919 61 597 5 785 9 820 20 138 40 218 88 318 191 76 78 117 149 152 260 26 83 28 278 4 354 -76 239 -256 409 -490 462 -74 17 -184 18 -1824 18 l-1745 0 -45 -21 c-55 -26 -93 -66 -115 -118 -17 -41 -16 -54 18 -151 14 -41 55 -84 97 -104 32 -14 197 -16 1790 -21 l1755 -5 41 -22 c23 -12 55 -39 72 -60 30 -38 63 -119 61 -151 -1 -27 -32 -115 -49 -138 -21 -28 -90 -80 -120 -90 -14 -4 -374 -11 -800 -14 l-775 -7 -103 -31 c-185 -58 -306 -129 -447 -263 -244 -234 -355 -540 -319 -882 23 -212 79 -358 202 -523 166 -221 376 -352 666 -415 87 -18 166 -19 2811 -19 2681 0 2723 0 2816 20 134 28 182 44 284 95 143 71 283 187 379 315 54 72 59 81 104 175 61 126 86 213 103 358 24 206 -24 442 -129 629 -121 217 -341 406 -562 484 -166 58 -154 57 -745 64 -302 4 -562 11 -577 15 -39 10 -115 80 -138 126 -28 53 -27 146 1 202 28 55 55 84 104 110 l40 22 1845 6 c1119 4 1867 10 1900 16 204 36 409 140 557 283 344 334 429 830 216 1255 -123 245 -345 439 -599 526 -169 57 -209 61 -691 66 -244 3 -443 8 -443 13 0 4 45 36 101 71 55 35 135 87 177 114 43 28 111 70 150 95 40 25 114 72 165 105 51 33 133 85 181 115 48 30 108 69 134 85 26 17 94 60 152 97 166 105 257 210 318 365 l27 68 0 1295 0 1295 -31 72 c-89 204 -126 239 -544 502 -123 77 -299 190 -446 283 -146 94 -218 140 -321 205 -54 34 -135 86 -181 115 -45 29 -110 71 -145 92 -34 22 -102 66 -152 97 -49 32 -124 79 -165 105 -41 26 -113 73 -160 103 -189 122 -313 167 -457 164 -117 -2 -258 -50 -380 -129 -36 -24 -67 -44 -69 -44 -3 0 -117 -74 -156 -101 -33 -23 -54 -24 -62 -3 -3 9 -6 414 -6 900 0 967 4 897 -55 1039 -21 50 -92 150 -137 191 -32 30 -142 106 -275 190 -35 21 -100 63 -145 92 -46 29 -123 78 -172 110 -50 31 -144 92 -210 134 -67 42 -161 102 -211 133 -49 31 -124 78 -165 105 -41 27 -147 94 -235 150 -88 56 -236 150 -330 210 -324 208 -406 254 -495 277 -19 5 -34 15 -32 21 1 9 -34 12 -128 12 -107 0 -130 -3 -130 -15z m-1963 -2079 c26 -16 84 -52 128 -81 132 -85 343 -219 362 -230 10 -5 56 -35 103 -66 47 -30 112 -72 145 -93 33 -20 105 -65 160 -101 149 -95 234 -149 253 -160 9 -5 55 -35 102 -66 47 -30 112 -72 145 -93 33 -20 105 -66 160 -101 166 -107 265 -165 280 -165 8 0 24 -9 35 -20 20 -20 20 -33 20 -998 0 -937 -6 -1312 -20 -1312 -3 0 -44 24 -91 53 -47 28 -94 57 -104 64 -147 87 -255 161 -259 178 -3 11 -6 210 -6 443 0 386 -2 428 -19 492 -37 134 -112 250 -212 327 -58 46 -84 63 -354 233 -181 115 -342 217 -495 317 -58 37 -140 89 -182 115 -126 77 -222 139 -245 161 l-23 20 0 558 c0 307 3 565 6 573 6 15 9 15 35 -1 15 -10 50 -31 76 -47z m4283 42 c1 -7 1 -413 1 -902 0 -872 -1 -889 -20 -905 -11 -9 -63 -43 -116 -76 -53 -33 -147 -93 -208 -132 -62 -40 -152 -98 -202 -129 -49 -31 -123 -77 -162 -102 -40 -26 -144 -92 -230 -146 -87 -55 -160 -103 -163 -106 -3 -4 -39 -26 -80 -50 -93 -55 -228 -186 -264 -257 -54 -107 -76 -197 -76 -308 0 -57 -3 -111 -6 -120 -4 -9 -43 -40 -88 -69 -241 -158 -352 -226 -366 -226 -6 0 -11 409 -12 1142 -3 1092 -2 1143 15 1165 10 13 24 23 31 23 7 0 43 17 79 38 71 40 107 62 372 232 94 60 211 134 260 165 50 31 124 78 165 105 41 27 104 67 140 90 36 23 109 69 163 103 53 34 161 102 240 151 78 49 165 103 192 121 28 17 85 54 128 81 42 27 103 66 135 86 62 41 72 44 72 26z m-5411 -989 c24 -5 81 -34 125 -63 82 -53 192 -123 224 -141 9 -5 55 -35 102 -66 93 -60 283 -181 471 -299 65 -41 199 -126 297 -189 97 -62 209 -134 247 -158 78 -50 317 -204 413 -266 34 -22 62 -46 62 -53 0 -7 -30 -32 -67 -57 -116 -75 -346 -225 -375 -242 -60 -37 -156 -98 -238 -151 -52 -34 -167 -107 -255 -162 -88 -56 -164 -105 -170 -109 -5 -5 -28 -19 -50 -33 -42 -25 -135 -84 -245 -155 -103 -66 -327 -209 -347 -220 -10 -6 -43 -27 -74 -47 -77 -50 -124 -68 -179 -68 -64 0 -99 16 -248 113 -70 46 -165 107 -212 136 -47 28 -137 85 -200 126 -209 134 -284 181 -363 231 -43 27 -128 82 -190 122 -62 40 -159 102 -217 138 -58 36 -139 87 -180 114 -72 47 -242 155 -278 175 -54 31 -112 78 -112 90 0 11 100 80 322 219 35 22 99 63 143 91 342 219 644 411 780 496 55 34 150 95 210 134 61 40 138 89 173 111 35 21 93 59 130 82 114 74 154 95 191 103 52 10 61 10 110 -2z m6639 -694 c31 -20 102 -64 157 -98 55 -35 148 -94 207 -132 59 -39 142 -92 185 -119 43 -27 116 -74 163 -104 47 -29 198 -125 335 -213 138 -88 287 -183 333 -212 259 -163 472 -308 472 -321 0 -12 -67 -62 -115 -86 -5 -3 -57 -36 -115 -74 -125 -83 -208 -136 -313 -202 -43 -27 -110 -70 -150 -95 -40 -26 -124 -79 -187 -119 -63 -40 -158 -101 -210 -135 -52 -34 -120 -77 -150 -95 -30 -19 -93 -59 -140 -89 -47 -31 -93 -60 -102 -66 -49 -29 -212 -132 -278 -175 -151 -99 -220 -123 -293 -99 -49 15 -49 15 -197 111 -115 74 -222 142 -263 166 -12 7 -74 46 -137 87 -63 40 -176 112 -250 160 -74 47 -205 131 -290 185 -85 55 -175 112 -200 126 -25 15 -83 52 -130 82 -47 30 -107 69 -135 87 -27 18 -88 57 -135 87 -47 30 -89 57 -95 59 -35 14 -115 73 -115 85 0 15 113 91 407 275 32 20 101 64 153 98 252 161 352 225 435 276 50 31 124 78 165 105 70 46 314 201 460 293 36 22 114 72 174 110 60 38 120 73 135 78 14 5 56 7 94 4 56 -3 77 -10 125 -40z m-8792 -977 c46 -29 92 -57 102 -63 9 -5 49 -31 87 -56 39 -25 122 -79 185 -119 63 -40 151 -96 195 -124 44 -29 98 -63 120 -76 22 -13 83 -51 135 -85 52 -34 147 -95 210 -135 63 -40 154 -98 202 -129 48 -31 123 -78 168 -106 44 -27 131 -83 193 -124 62 -41 153 -95 202 -121 l90 -48 3 -1151 c1 -838 -1 -1151 -9 -1151 -11 0 -203 112 -274 161 -22 15 -92 59 -155 99 -63 40 -154 98 -202 129 -48 31 -113 72 -145 92 -32 20 -141 89 -243 154 -102 65 -259 165 -350 223 -91 57 -194 123 -230 146 -36 23 -100 64 -143 92 -160 101 -197 132 -223 187 l-24 52 0 1096 c0 603 3 1099 7 1102 10 10 8 11 99 -45z m4294 -1039 c0 -1211 3 -1155 -66 -1224 -18 -18 -78 -61 -133 -96 -55 -35 -133 -85 -173 -111 -40 -26 -114 -73 -165 -105 -201 -127 -422 -267 -493 -313 -41 -27 -124 -80 -185 -118 -60 -37 -157 -99 -215 -136 -401 -259 -547 -349 -557 -343 -5 3 -8 521 -8 1152 l0 1147 90 47 c50 26 131 74 180 106 50 32 119 77 155 100 36 22 107 68 157 101 51 32 104 66 118 74 37 22 273 172 400 255 121 78 164 106 365 230 74 46 175 110 225 142 137 89 289 182 298 183 4 0 7 -491 7 -1091z m2268 378 c45 -28 124 -79 175 -111 50 -33 142 -91 202 -129 61 -38 149 -95 197 -126 48 -31 116 -74 150 -95 35 -22 106 -67 158 -101 52 -33 145 -92 205 -130 61 -39 138 -88 172 -110 34 -22 95 -60 135 -85 40 -25 135 -85 213 -135 77 -49 163 -101 190 -114 28 -13 58 -31 68 -39 16 -14 17 -82 17 -1158 0 -734 -3 -1145 -10 -1149 -5 -3 -22 3 -37 14 -16 11 -75 49 -133 84 -99 60 -160 99 -385 242 -51 33 -167 106 -257 163 -90 57 -213 136 -275 175 -219 140 -317 203 -434 277 -410 259 -436 280 -457 369 -9 39 -12 325 -12 1132 0 1021 1 1079 18 1079 9 0 54 -24 100 -53z m4277 -1058 c0 -1212 4 -1134 -58 -1200 -23 -24 -172 -122 -398 -264 -35 -21 -123 -78 -196 -125 -148 -95 -335 -215 -481 -306 -53 -33 -145 -91 -204 -130 -59 -38 -140 -90 -180 -115 -76 -48 -186 -118 -346 -220 -51 -32 -99 -59 -106 -59 -17 0 -26 501 -26 1511 0 726 1 777 18 791 9 9 28 19 41 23 31 9 108 55 261 154 69 45 166 106 215 137 50 30 124 77 165 104 41 27 113 72 160 101 47 29 144 91 217 138 196 127 538 343 733 463 47 29 103 65 125 80 22 15 45 26 50 24 7 -2 10 -379 10 -1107z"/> <path d="M12265 3981 c-334 -45 -649 -272 -805 -581 -27 -53 -54 -129 -83 -230 -30 -109 -30 -389 1 -502 26 -97 73 -214 106 -267 14 -22 26 -43 26 -47 0 -8 94 -128 140 -178 50 -54 202 -166 285 -208 357 -184 791 -148 1115 92 100 75 155 130 232 234 237 319 273 749 91 1109 -178 354 -518 570 -913 582 -74 2 -162 0 -195 -4z m309 -418 c189 -61 338 -176 415 -318 12 -22 26 -47 30 -55 45 -78 66 -234 50 -357 -12 -92 -16 -103 -71 -217 -47 -98 -177 -228 -273 -274 -119 -57 -127 -60 -228 -72 -106 -12 -211 -3 -297 28 -128 45 -274 166 -344 283 -20 33 -36 63 -36 66 0 3 -6 19 -14 36 -34 78 -46 139 -46 237 0 116 15 180 67 285 82 165 195 267 368 334 33 13 69 27 80 32 39 15 244 10 299 -8z"/> </g> </svg> 